<svg width="22" height="23" viewBox="0 0 22 23" fill="none" xmlns="http://www.w3.org/2000/svg">
<path d="M11 9.03711C9.53516 9.03711 8.36328 10.209 8.36328 11.625C8.36328 13.0898 9.53516 14.2617 11 14.2617C12.416 14.2617 13.5879 13.0898 13.5879 11.625C13.5879 10.209 12.416 9.03711 11 9.03711ZM17.0547 7.03516C16.8105 6.35156 16.2734 5.81445 15.5898 5.57031C14.5645 5.13086 12.123 5.22852 11 5.22852C9.82812 5.22852 7.38672 5.13086 6.36133 5.57031C5.67773 5.81445 5.14062 6.35156 4.89648 7.03516C4.50586 8.06055 4.55469 10.502 4.55469 11.625C4.55469 12.7969 4.50586 15.2383 4.89648 16.2637C5.14062 16.9473 5.67773 17.4844 6.36133 17.7285C7.38672 18.168 9.82812 18.0703 11 18.0703C12.123 18.0703 14.5645 18.168 15.5898 17.7285C16.2734 17.4844 16.8105 16.9473 17.0547 16.2637C17.4941 15.2383 17.3965 12.7969 17.3965 11.625C17.3965 10.502 17.4941 8.06055 17.0547 7.03516ZM11 15.6289C8.75391 15.6289 6.99609 13.8711 6.99609 11.625C6.99609 9.42773 8.75391 7.62109 11 7.62109C13.1973 7.62109 15.0039 9.42773 15.0039 11.625V11.6738C15.0039 13.8711 13.1973 15.6777 11 15.6777V15.6289ZM15.1504 8.40234C14.6133 8.40234 14.2227 8.01172 14.2227 7.47461C14.2227 6.9375 14.6133 6.54688 15.1504 6.54688C15.6387 6.54688 16.0781 6.9375 16.0781 7.47461C16.0781 8.01172 15.6387 8.40234 15.1504 8.40234ZM19.5938 0.6875H2.40625C1.08789 0.6875 0.0625 1.76172 0.0625 3.03125V20.2188C0.0625 21.5371 1.08789 22.5625 2.40625 22.5625H19.5938C20.8633 22.5625 21.9375 21.5371 21.9375 20.2188V3.03125C21.9375 1.76172 20.8633 0.6875 19.5938 0.6875ZM18.7148 14.8477C18.666 16.1172 18.373 17.2402 17.4941 18.1191C16.5664 19.0469 15.4434 19.3398 14.2227 19.3887C12.9043 19.4863 9.04688 19.4863 7.77734 19.3887C6.50781 19.3398 5.38477 19.0469 4.50586 18.1191C3.57812 17.2402 3.28516 16.1172 3.23633 14.8477C3.13867 13.5781 3.13867 9.7207 3.23633 8.40234C3.28516 7.18164 3.57812 6.05859 4.50586 5.13086C5.38477 4.25195 6.50781 3.95898 7.77734 3.91016C9.04688 3.8125 12.9043 3.8125 14.2227 3.91016C15.4434 3.95898 16.5664 4.25195 17.4941 5.17969C18.373 6.05859 18.666 7.18164 18.7148 8.45117C18.8125 9.7207 18.8125 13.5781 18.7148 14.8477Z" fill="white"/>
</svg>
