<svg width="22" height="23" viewBox="0 0 22 23" fill="none" xmlns="http://www.w3.org/2000/svg">
<path d="M20.375 0.6875H1.57617C0.746094 0.6875 0.0625 1.41992 0.0625 2.29883V21C0.0625 21.8789 0.746094 22.5625 1.57617 22.5625H20.375C21.2051 22.5625 21.9375 21.8789 21.9375 21V2.29883C21.9375 1.41992 21.2051 0.6875 20.375 0.6875ZM6.6543 19.4375H3.43164V9.03711H6.6543V19.4375ZM5.04297 7.57227C3.96875 7.57227 3.13867 6.74219 3.13867 5.7168C3.13867 4.69141 3.96875 3.8125 5.04297 3.8125C6.06836 3.8125 6.89844 4.69141 6.89844 5.7168C6.89844 6.74219 6.06836 7.57227 5.04297 7.57227ZM18.8125 19.4375H15.541V14.3594C15.541 13.1875 15.541 11.625 13.8809 11.625C12.1719 11.625 11.9277 12.9434 11.9277 14.3105V19.4375H8.70508V9.03711H11.7812V10.4531H11.8301C12.2695 9.62305 13.3438 8.74414 14.9062 8.74414C18.1777 8.74414 18.8125 10.9414 18.8125 13.7246V19.4375Z" fill="white"/>
</svg>
